<mxfile host="app.diagrams.net" modified="2023-11-07T05:49:46.294Z" agent="Mozilla/5.0 (Windows NT 10.0; Win64; x64) AppleWebKit/537.36 (KHTML, like Gecko) Chrome/114.0.0.0 Safari/537.36" version="22.0.8" etag="Y6DX-asmu2Ab-EikBDSS" type="github">
  <diagram name="第 1 页" id="06GMH2aRgumV7D_unxmW">
    <mxGraphModel>
      <root>
        <mxCell id="0" />
        <mxCell id="1" parent="0" />
      </root>
    </mxGraphModel>
  </diagram>
</mxfile>
